<svg xmlns="http://www.w3.org/2000/svg" width="100" viewBox="0 0 75 75" height="100"><defs><clipPath id="a"><path d="M28 7.5h18V28H28Zm0 0"></path></clipPath><clipPath id="b"><path d="M12.863 18H29v15H12.863Zm0 0"></path></clipPath><clipPath id="c"><path d="M47 15h15.363v17H47Zm0 0"></path></clipPath><clipPath id="d"><path d="M23 28h27v39.5H23Zm0 0"></path></clipPath></defs><g clip-path="url(#a)"><path fill="#fff" d="M28.773 17.996c.043.129.086.254.125.383.067.242.133.484.223.719.078.21.188.41.266.62.101.259.246.5.37.747.102.203.247.383.348.586-.007.023.008.031.028.031.152.219.289.45.472.645-.023.05-.015.082.047.082.168.218.368.41.563.605.379.375.797.695 1.223 1.008 0 .02.007.031.03.027l.231.133c0 .02.008.035.031.027.208.11.415.22.622.332 0 .02.003.032.03.024.052.031.102.066.165.07 0 .024.004.035.031.027.106.04.219.067.32.118.34.183.704.293 1.075.379.03.058.066.02.097.007.028.036.09 0 .106.059-.016.086.023.145.09.195.207.625.418 1.25.687 1.856.078.176.11.387.277.523.098.078.145.047.192-.039.105-.183.21-.363.312-.547.13-.238.313-.453.38-.722.175-.137.245-.344.35-.524.02-.031-.03-.023-.054-.031-.023-.074.047-.117.07-.168.079-.156.13-.328.25-.461.024.012.047.027.067.04.074-.013.074-.099.129-.13a3.695 3.695 0 0 0 1.215-.328c.011-.004.011-.035.02-.055.023-.007.05 0 .062-.03.156-.009.25-.145.394-.177.059-.023.121-.043.176-.062.027-.02.05-.043.078-.055.168-.086.367-.098.52-.23.035-.028.066-.067.12-.094a3.204 3.204 0 0 0 1.012-.617c.024-.016.047-.028.067-.043.055.02.078-.016.101-.055.102.004.168-.078.254-.117.2-.086.242-.313.407-.434.03 0 .07.012.086-.035.05-.012.097-.031.082-.101a.641.641 0 0 1 .042-.012c.188-.031.293-.16.387-.309.082-.039.102-.136.168-.191.11-.074.207-.16.293-.262l.067-.008c.02.004.03 0 .023-.027.008-.066.066-.094.105-.137.051.016.075 0 .06-.058.097-.153.21-.293.331-.426.059-.024.09-.063.09-.125.207-.367.418-.734.625-1.106.016 0 .035-.003.02-.03a.383.383 0 0 1 .062-.177c.078-.128.156-.261.203-.406.137-.402.293-.8.356-1.226.058-.403.156-.801.164-1.211v-.032a.185.185 0 0 0 .035-.12c.008-.274.05-.544.039-.821l.023-.012-.023-.023c-.012-.188-.012-.371-.04-.555a4.105 4.105 0 0 0-.132-.644c-.027-.102.012-.235-.125-.293-.004-.012-.008-.024-.016-.036.047 0 .055-.03.047-.062a5.14 5.14 0 0 0-.394-.945l-.227-.485c.008-.023 0-.027-.023-.023l-.211-.402c.023-.106-.082-.153-.114-.235-.09-.223-.238-.41-.394-.594-.125-.14-.25-.285-.375-.425-.172-.207-.34-.418-.52-.614-.28-.312-.57-.609-.925-.832-.024-.02-.043-.035-.059-.054-.012-.032-.035-.036-.062-.04a.639.639 0 0 0-.258-.195c-.043-.062-.11-.09-.172-.117-.031-.039-.07-.047-.117-.031l-.004-.004c.004-.04-.008-.07-.047-.086-.055-.035-.113-.07-.168-.11a.287.287 0 0 0-.164-.081.133.133 0 0 0-.11-.086c-.007-.04-.046-.028-.07-.043-.015-.036-.047-.055-.09-.055-.199-.152-.441-.211-.652-.336-.063-.039-.121-.027-.16.043h-.063c-.043-.027.047-.063-.023-.105-.336-.204-.715-.25-1.082-.34-.09-.016-.176-.028-.258-.043-.023-.051-.066-.028-.098-.028h-.097a.404.404 0 0 0-.262-.027c-.023-.004-.043-.004-.066-.008-.137-.066-.282-.015-.422-.027h-.063c-.047 0-.097-.027-.133.023-.011 0-.023.004-.03.004H36.983c-.05-.02-.09 0-.129.031h-.03c-.087.004-.18-.039-.263.028-.082.012-.167.004-.253.02-.356.058-.7.148-1.036.273-.351.133-.699.285-1.015.492-.024-.008-.031.008-.031.027-.184.098-.368.184-.54.309-.269.187-.574.32-.835.527-.422.336-.852.653-1.223 1.051-.309.336-.688.602-.973.961-.332.414-.656.832-.926 1.285-.433.73-.773 1.504-.957 2.34-.093.422-.14.848-.168 1.277-.023.395.036.782.082 1.168.028.207.024.422.09.625Zm.54-2.09c.023-.496.156-.972.292-1.449.133-.45.329-.867.555-1.277.285-.516.602-1.012 1.008-1.438.16-.16.273-.36.441-.508.07-.058.118-.14.227-.125.05.008.082-.027.078-.082 0-.047.043-.074.05-.105.09-.274.364-.36.544-.543.176-.172.355-.336.554-.48.079-.06.192-.067.278-.137.2-.164.367-.371.625-.453.02-.008.043-.012.062-.016.02.008.032-.008.032-.027.062-.043.109-.114.195-.106.156.059.207-.066.277-.156.125-.055.25-.11.371-.168.024.008.032-.008.035-.024.032-.015.063-.03.098-.042.145.082.195-.075.29-.118.042-.02.097.024.128-.035.223 0 .418-.086.617-.164.012 0 .024-.004.032-.004.078.04.12-.062.175-.058.168.015.328.004.493-.016.5-.059 1.003.004 1.503-.047.13.082.282.078.418.125.25.082.504.149.758.215.356.098.688.262 1.008.445.059.035.129.117.223.075.011.003.023.007.035.015-.008.047.015.067.062.067.13.113.254.23.422.289.012.03.043.027.067.035.332.254.66.515.957.812.293.297.597.594.84.938-.008.027.003.031.023.027l.07.106c-.004.023.004.027.028.03.21.274.394.571.558.88.106.195.203.398.313.593.027.051.043.098.047.153-.012.023.003.027.023.027.117.305.285.59.39.899.145.414.258.832.294 1.27.03.425-.02.847-.059 1.273-.059.59-.184 1.168-.324 1.742-.07.273-.188.527-.278.797-.043.132-.152.254-.222.386-.09.153-.153.317-.235.473-.16.293-.336.566-.586.79a.494.494 0 0 0-.18.167c-.073.016-.12.07-.163.129a.235.235 0 0 0-.098.098c-.2.097-.336.277-.504.41-.27.21-.527.437-.789.664-.027.023-.047.055-.074.086-.098.062-.18.144-.262.226-.043.016-.074.035-.09.078a.588.588 0 0 0-.066.04c-.043-.008-.063.015-.07.05-.22.145-.434.301-.664.422-.34.172-.672.356-1.028.5-.344.137-.707.219-1.043.375a1.21 1.21 0 0 1-.355.098c-.348.031-.48.265-.567.543-.062.195-.16.375-.23.566-.04.035-.067.078-.059.133-.015.047-.09.066-.07.133-.016.015-.043.031-.05.05-.138.286-.27.57-.407.852-.145-.12-.145-.316-.215-.473-.11-.242-.242-.48-.312-.73-.063-.215-.164-.41-.235-.617-.086-.281-.281-.387-.535-.442-.277-.05-.516-.21-.781-.3a14.247 14.247 0 0 1-1.27-.75c-.281-.2-.574-.383-.82-.625-.035-.04-.082-.09-.148-.086l-.036-.024c-.004-.082-.093-.082-.129-.14.036-.04.004-.055-.03-.067-.06-.07-.087-.176-.196-.195-.067-.074-.137-.148-.203-.223.008-.07-.031-.09-.09-.101l-.106-.13c.008-.023-.003-.03-.023-.023-.066-.039-.078-.117-.129-.168.059-.058-.015-.054-.035-.07-.102-.101-.14-.242-.227-.355-.007-.043-.023-.078-.066-.098.004-.05-.016-.082-.063-.102-.003-.023.004-.054-.03-.062-.012-.043-.024-.078-.063-.098a.097.097 0 0 0-.067-.097.226.226 0 0 0-.097-.164c-.004-.024.004-.055-.032-.067 0-.043-.015-.07-.066-.062.023-.102-.035-.164-.098-.227-.004-.023 0-.055-.035-.066-.008-.067-.031-.125-.097-.16-.008-.122-.082-.22-.13-.325a.229.229 0 0 0-.066-.129c.016-.074-.078-.097-.066-.164 0-.023-.004-.047-.004-.07-.055-.129-.11-.258-.16-.387-.031-.078 0-.195-.121-.226.027-.223-.086-.422-.114-.633-.03-.297-.117-.586-.125-.887-.007-.32-.011-.64.004-.96Zm0 0"></path></g><g clip-path="url(#b)"><path fill="#fff" d="M23.984 30.945c.172-.18.38-.328.512-.543.043-.07.078-.21.102-.215.136-.027.175-.148.222-.23.098-.168.18-.266.399-.215.383.082.777-.004 1.16.047.215.031.43.016.644.035.352.035.704.067 1.059.059.11-.004.125-.067.074-.149-.07-.109-.148-.214-.222-.32-.239-.348-.489-.687-.707-1.047-.227-.37-.508-.703-.704-1.09-.003-.007-.02-.015-.035-.023-.175-.117-.21-.215-.164-.402.012-.063.055-.122.035-.188.02-.016.043-.031.028-.062-.024.007-.04.011-.047.02.008-.009.023-.013.047-.02l.008-.098c.128-.05.066-.184.125-.27.015-.023-.024-.05-.06-.054.024-.067.044-.13.063-.192.063-.035.082-.093.098-.16.031-.129-.008-.273.024-.387.054-.218-.098-.394-.07-.605.01-.098-.02-.211.003-.324.02-.09-.004-.266-.043-.278-.125-.03-.098-.109-.11-.183-.003-.035-.019-.07-.034-.11v-.164c.02-.015.086.051.066-.03-.059-.227-.086-.462-.195-.673-.075-.137-.121-.289-.192-.43-.117-.234-.144-.507-.316-.718-.04-.055-.02-.16-.137-.153-.039-.007-.035-.043-.043-.07.012-.16-.09-.285-.14-.426-.063-.18-.235-.246-.368-.359-.011-.02-.03-.043-.046-.066-.02-.059-.067-.094-.114-.13-.035-.109-.152-.156-.199-.257-.316-.293-.633-.586-.95-.883-.027-.016-.046-.07-.089-.027-.008-.008-.02-.016-.031-.028-.012-.074-.067-.09-.13-.082v-.011l-.007-.004c-.008-.028-.012-.067-.059-.055-.011-.055-.062-.059-.097-.074 0-.02-.004-.031-.028-.028-.148-.09-.296-.18-.441-.27a6.315 6.315 0 0 0-1.574-.679c-.422-.113-.844-.215-1.278-.25-.21-.02-.421-.043-.636-.043-.34 0-.676.063-1.012.067-.46.004-.867.21-1.293.332-.113.047-.254.027-.328.152-.133-.008-.168.16-.29.172a.423.423 0 0 0-.35.187c-.06.02-.122.016-.169.063-.074-.008-.097.055-.136.098-.008 0-.02 0-.032.003l-.03.028-.032.035c-.05 0-.082.02-.098.062-.043.024-.086.051-.129.07-.054-.015-.074.005-.058.06-.012.035-.043.038-.075.042-.023-.011-.027.004-.035.02-.011 0-.02 0-.027.008-.023-.004-.031.004-.027.027-.082.133-.22.215-.329.324-.023 0-.035.012-.03.032-.044.007-.087.011-.095.066-.035.043-.07.082-.101.125-.066.07-.137.144-.191.223-.25.363-.52.714-.704 1.128-.125.29-.289.563-.382.864-.106.343-.27.672-.258 1.047.004.074.023.074.07.09.012.039-.02.062-.035.093-.055-.027-.113-.101-.133.04-.012.105-.066.206-.05.32 0 .02-.005.043-.008.062a.407.407 0 0 0-.06.262c-.023.039.02.062.024.094-.054.218-.086.43-.054.656.011.082.047.187-.008.277-.043-.012-.024.027-.035.043.008.445.015.895.136 1.332 0 .035-.007.074.032.098.039.035.011.097.058.129a.743.743 0 0 0 .016.293c-.004.027-.012.054.023.062.059.188.055.399.203.555-.05.062-.035.113.02.164.094.215.168.441.285.644.277.465.547.942.926 1.336-.004.024 0 .032.027.024a.389.389 0 0 0 .04.043c-.008.02 0 .031.023.023.07.067.144.133.215.203-.004.055.035.063.078.067.066.078.117.172.23.191 0 .063.04.086.094.094.074.066.152.133.223.203.015.035.043.031.066.023.219.149.426.31.652.442.313.187.63.387.965.527.496.211 1 .414 1.535.512.313.062.63.129.953.156.188.016.383-.011.56.035.265.063.515-.023.769-.03.18-.005.351-.095.53-.044.024.008.052-.008.079-.015.117-.04.234-.083.355-.114.5-.133.973-.336 1.383-.652.223-.172.43-.352.621-.559ZM12.97 25.25v-.023.023Zm10.254 5.707-.075.035c-.023-.004-.03.008-.035.031-.023.032-.078.02-.093.067-.04.012-.079.02-.094.062-.082.032-.172.051-.23.13-.012 0-.024 0-.032.003a.158.158 0 0 0-.133.059c-.011 0-.02.004-.027.008-.031-.008-.059-.012-.07.027a2.78 2.78 0 0 0-.192.074.342.342 0 0 0-.164.055l-.258.078a.221.221 0 0 1-.05.039c.015-.012.035-.023.05-.04-.101.024-.207.056-.304.083-.172.012-.34.027-.508.043-.035 0-.074-.027-.098.023-.496.032-.988 0-1.48-.093a.196.196 0 0 0-.047.007l-.067-.007s0 .011.004.015c0-.004 0-.011-.004-.015-.187-.043-.378-.082-.566-.133-.32-.082-.625-.2-.938-.305-.406-.14-.769-.355-1.132-.57-.207-.121-.407-.262-.606-.395-.02-.062-.078-.078-.133-.097-.039-.036-.074-.067-.109-.102-.02-.05-.066-.062-.11-.086-.066-.004-.074-.086-.132-.105-.008-.02-.012-.035-.04-.024a7.199 7.199 0 0 0-.25-.238c-.058-.215-.277-.313-.382-.5-.203-.356-.461-.68-.61-1.063-.167-.418-.363-.828-.48-1.27-.066-.26-.172-.51-.144-.784.004-.051-.028-.094-.079-.114-.015-.05.004-.09.032-.128.058-.004.062-.032.078-.09.023-.09-.047-.157-.04-.227.032-.195-.034-.387.016-.578.012-.027.012-.062-.03-.078 0-.043-.005-.086-.005-.133.031-.031.106-.055.012-.094.023-.074.086-.14.035-.226.047-.008.09-.024.082-.078-.012-.172.035-.34.035-.512 0-.02.008-.043.008-.063.047-.003.043-.03.035-.066.032-.012.028-.043.028-.066.004-.024.011-.043.02-.063l.01-.066c.036-.13.067-.258.099-.387.054-.145.015-.3.058-.445a.578.578 0 0 1 .078-.172c.13-.07.125-.223.192-.328a.38.38 0 0 0 .074-.223c.031-.016.023-.043.02-.066.199-.297.351-.618.53-.922.098-.16.25-.274.376-.41.386-.426.828-.793 1.359-1.008.285-.117.55-.258.852-.344.332-.094.671-.184 1.007-.25.258-.05.543-.094.829-.027.156.039.328.015.492.03.379.044.75.09 1.117.196.297.09.594.192.875.317.266.113.508.277.758.418.277.156.543.347.773.55.32.286.692.524.93.914.18.301.402.575.55.895.184.395.337.8.465 1.215.063.2.118.398.172.598-.004.027 0 .05.028.066a.23.23 0 0 0 .039.16c-.008.031 0 .05.027.066 0 .032 0 .063.004.098v.063c0 .047.04.058.063.078v.015c.011.047.019.098.03.145-.015.004-.034 0-.038.012-.02.027-.004.039.023.035 0 .027-.004.05-.004.074-.004.11-.047.223.016.328 0 .012 0 .024.004.031.011.059-.051.137.054.164 0 .106.004.215.008.32-.058-.023-.082 0-.058.048a.257.257 0 0 1 .035.144c.004.168-.11.3-.098.461-.039.047-.047.102-.039.16 0 .102-.082.203-.027.309.027-.07.027-.152.086-.211-.004.125.011.254-.125.324h-.032c0 .024-.003.043-.007.067-.09-.008-.075.062-.078.117.09-.02.042.199.18.105 0 .086.019.156.07.223.242.34.523.656.78.984.278.36.602.676.872 1.051-.086.063-.156-.031-.23-.012-.024-.039-.044-.039-.067 0-.11 0-.219.008-.328.008-.016-.02-.031-.039-.063-.027-.097.031-.195 0-.289-.016-.023-.035-.047-.035-.066 0-.078.004-.149-.047-.23-.023-.09-.067-.192-.024-.29-.028-.297-.03-.59 0-.882.02-.028 0-.047.004-.063.035-.09.184-.266.3-.367.477-.156.27-.426.437-.64.656-.157.156-.345.285-.516.426-.043.007-.075.023-.094.066Zm2.297-4.031c.062.015.02.07.039.101-.082-.007-.02-.07-.04-.101Zm0 0"></path></g><g clip-path="url(#c)"><path fill="#fff" d="M62.07 23.586c.016-.477.028-.953-.047-1.43a5.96 5.96 0 0 0-.511-1.617c-.153-.328-.285-.668-.512-.969a2.76 2.76 0 0 1-.277-.496c-.04-.094-.13-.144-.164-.234-.106-.266-.286-.492-.473-.695-.223-.243-.434-.497-.719-.68-.164-.11-.277-.281-.457-.387-.137-.082-.3-.121-.418-.207-.148-.11-.304-.2-.469-.262-.71-.273-1.425-.535-2.195-.593-.523-.043-1.043-.043-1.558.066-.282.059-.551.137-.825.207-.023-.012-.03.008-.035.023-.023 0-.058-.007-.078.008-.227.157-.504.215-.746.34-.375.195-.727.422-1.09.633-.023-.004-.031.004-.031.027-.063.043-.13.09-.195.137-.024-.008-.032.008-.032.027-.16.114-.3.266-.457.383-.343.25-.656.535-.937.852-.024 0-.035.008-.028.031-.093.129-.183.258-.285.375a11 11 0 0 0-.988 1.52c-.219.398-.387.82-.54 1.25-.218.62-.288 1.257-.296 1.902-.004.312.059.625.102.941.05.407.12.813.28 1.196.095.23.122.484.212.714.097.254.258.493.406.723.156.242.164.484.113.746-.066.317-.101.637-.164.953-.097.492-.234.973-.293 1.47-.023.183-.101.362-.043.55.067.066.153.094.23.047.138-.082.298-.121.434-.207.149-.094.313-.16.473-.239.563-.226 1.129-.449 1.695-.675.106-.043.203-.09.313-.121.129-.04.148.171.285.132.215.22.512.285.777.41.325.157.676.16 1.028.204.523.062 1.03-.032 1.547-.063.253-.015.503-.066.753-.105a5.66 5.66 0 0 0 1.02-.262c.371-.133.73-.293 1.063-.516.238-.16.503-.277.742-.445.457-.313.855-.691 1.242-1.078.45-.45.848-.934 1.18-1.477.367-.593.656-1.215.789-1.906.047-.008.054-.039.062-.078a4.02 4.02 0 0 0 .086-.57v-.07c.059-.06.043-.122.012-.188.02-.098.015-.195.02-.293Zm-.758-.176c.016.367-.05.727-.136 1.078a9.622 9.622 0 0 1-.457 1.336c-.02.004-.032.008-.028.035 0 .02-.004.04-.007.063.011.012.02.02.023.027-.004-.008-.012-.015-.023-.027-.04.012-.028.039-.024.066-.004.012-.008.02-.008.032-.058.023-.066.085-.093.132a5.007 5.007 0 0 1-.72 1.059c-.28.328-.57.648-.91.914-.35.273-.687.559-1.066.797-.203.129-.414.242-.617.375-.187.129-.434.172-.644.27-.184.085-.383.124-.57.19a2.393 2.393 0 0 1-.575.126c-.602.058-1.2.168-1.812.137-.555-.024-1.086-.122-1.586-.383-.215-.106-.43-.215-.641-.328-.066-.036-.129-.047-.191-.004-.32.21-.707.285-1.028.492-.066.047-.164.039-.234.098-.25.109-.504.218-.758.324-.078.035-.164.058-.207.144-.047-.047-.07.012-.105.024-.016-.004-.028-.004-.043-.008 0-.2.074-.379.117-.57.097-.446.222-.887.347-1.329.07-.234.094-.476.121-.714a.514.514 0 0 0-.058-.262c-.125-.242-.203-.508-.379-.727-.059-.07-.016-.199-.082-.273-.129-.14-.145-.313-.184-.48-.02-.087-.109-.122-.144-.212a4.029 4.029 0 0 1-.25-1.07c-.02-.16-.063-.316-.094-.472.082-.043.063-.122.063-.188 0-.273.004-.55.03-.824.005-.078.095-.16-.026-.223.113-.144.117-.32.156-.484.011-.063.023-.125.039-.188.023-.082.07-.172-.035-.238.03-.05.074-.094.066-.16-.008-.047.012-.082.066-.082.051-.02.055-.067.06-.113a.17.17 0 0 0 .023-.028c.05-.144.097-.289.16-.43.023-.062 0-.062-.047-.062.015-.195.164-.313.258-.465.105-.105.183-.223.187-.379-.012.016-.031.024-.05.012.1-.113.09-.297.242-.379.035-.02.074-.016.105-.035.059-.035.066-.11.11-.16.003-.008.015-.016.019-.028.187-.246.379-.488.562-.738a.756.756 0 0 1 .22-.226c.034 0 .058-.02.077-.047l.008-.004a.349.349 0 0 0 .113-.113c.399-.317.782-.66 1.223-.922.324-.188.625-.418.98-.547.024.008.032-.004.036-.024a.27.27 0 0 1 .03-.011c.024.011.032-.004.036-.02.129-.059.258-.121.387-.176.043 0 .078-.011.097-.05.02-.008.043-.012.063-.016.055-.012.117-.008.164-.05.043-.017.086-.028.129-.044.027.008.055.004.066-.02.024-.003.043-.007.063-.011.027.008.058.015.066-.024a.76.76 0 0 1 .098-.007c.027.004.055.007.066-.028.02 0 .04-.004.063-.008.027.008.05 0 .062-.03.207-.098.434-.06.653-.063.086-.004.175.043.257-.02h.164c.094.055.192.024.293.024.086.007.172.007.258.011.024.047.067.024.102.02.062.015.129.031.191.043.012.039.043.031.067.023.297.012.562.137.847.203.024.032.04.079.094.059h.035c.028.023.055.047.094.04.05.062.121.019.18.034.03.04.066.055.113.051l.39.14c.012.032.04.032.063.036.234.137.457.285.672.445.422.32.816.672 1.117 1.11-.062.085.012.085.066.101.22.305.415.625.586.961.02.035.043.07.067.105.05.102.058.223.16.297 0 .012 0 .02.004.028.016.086.031.168.094.23l.007.031c.036.184.11.352.188.52.004.004.02.004.031.004a.293.293 0 0 0 .016.062c.02.153.027.301.058.45.063.296.141.59.141.898 0 .129.004.266.086.383-.008.101-.02.21.008.316a.236.236 0 0 0-.07.184Zm0 0"></path></g><g clip-path="url(#d)"><path fill="#fff" d="M46.777 44.777c.13-.027.258-.043.387-.062a.273.273 0 0 0 .176-.059c.023-.004.055 0 .066-.031.184-.016.352-.098.516-.172.058.02.078-.023.101-.058.043-.016.079-.051.118-.075.34-.187.652-.414.882-.742.461-.656.598-1.387.489-2.172a1.538 1.538 0 0 0-.371-.797c-.172-.203-.34-.425-.606-.53-.18-.15-.39-.212-.613-.255a1.86 1.86 0 0 0-.488-.035c-.012-.035-.036-.035-.063-.027h-.101c-.043 0-.086 0-.13-.004-.066 0-.128 0-.195.004-.03.004-.078-.032-.097.023-.02.004-.043.004-.063.008l-.097-.012c-.04-.09-.032-.187-.032-.285a94.318 94.318 0 0 1 .032-3.324c.003-.195-.02-.39.027-.578.02-.024.015-.043 0-.063v-.23c.02-.02.023-.043 0-.063-.024-.258-.063-.511-.063-.773 0-.164.04-.332-.03-.492.046-.02.034-.063.038-.098.04-.3-.039-.598-.055-.895-.011-.257.02-.527-.066-.761-.09-.235-.074-.485-.121-.719-.05-.242-.152-.457-.219-.684-.07-.226-.277-.378-.383-.586a.854.854 0 0 0-.187-.187c0-.074-.035-.11-.11-.11-.007-.058-.081-.046-.101-.09-.023-.054-.074-.073-.125-.093a.126.126 0 0 0-.098-.066 1.277 1.277 0 0 0-.28-.168c-.028-.032-.06-.059-.106-.051-.102-.047-.204-.098-.305-.14-.277-.122-.582-.13-.867-.212-.516-.152-1.047-.242-1.575-.324a17.337 17.337 0 0 0-1.562-.152c-.176-.008-.355-.004-.531-.032-.418-.062-.84-.043-1.258-.093-.246-.028-.496-.016-.738-.035-.461-.043-.918-.051-1.38-.086-.503-.04-1.007-.016-1.515-.09-.465-.07-.941-.055-1.414-.078-.043 0-.086.007-.129 0a5.659 5.659 0 0 0-1.476-.032c-.133.016-.254.079-.38.098-.245.035-.46.121-.675.234-.152.036-.317.043-.379.227h-.012c-.05-.016-.078.016-.097.059-.02 0-.036.007-.028.03a.439.439 0 0 0-.316.263c-.004.011-.012.015-.024.023-.261.172-.308.477-.445.727-.058.023-.074.066-.055.128 0 .043-.003.086-.007.13-.016.003-.043.003-.043.007-.04.16-.078.317-.059.48 0 .102-.129.176-.09.27.043.106-.023.188-.012.278.004.054-.097.039-.046.09.097.1.02.206.007.308-.015.11-.02.223-.054.324-.067.176.031.344-.016.531-.07.301-.14.614-.082.934-.016.027-.031.055-.039.086-.082.285-.043.582-.074.875-.02.234.027.484-.11.703-.011.02 0 .04.028.047.031.148-.078.3.015.45v.073c-.074.047-.058.098-.011.157-.059.226.011.457-.028.683-.023.14-.082.282.028.41.011.055-.008.082-.067.079-.37-.036-.722.054-1.074.175-.027-.02-.027 0-.027.02-.106.066-.211.137-.317.2-.441.253-.695.66-.86 1.128a.107.107 0 0 0-.058.07c-.082.285-.175.57-.16.875a.304.304 0 0 0-.008.063c-.109.054-.09.187-.086.25.043.441-.082.87-.054 1.312.011.207-.055.43-.016.649-.05.054.016.11-.004.16-.058.152-.086.3-.027.457 0 .031 0 .066.004.098-.063.148-.031.3-.031.453a.822.822 0 0 0-.008.097c-.063.059-.02.13-.028.196l-.007.129c-.063.058-.024.132-.028.195v.035c.031.066-.094.125-.008.195.04.149-.09.274-.066.418-.04.012-.027.043-.023.067 0 .054-.004.11-.008.164-.04.008-.035.039-.028.062-.03.297-.043.594-.136.88-.04.007-.032.034-.024.062v.035c-.023.074-.043.152-.066.226-.055.184-.117.368-.168.555-.238.899-.473 1.793-.707 2.688-.11.433-.242.863-.324 1.304-.016.063-.055.121-.043.192-.114.097-.075.242-.106.363a9.514 9.514 0 0 0-.305 1.555c-.011.05-.023.109-.03.16-.012.09-.036.18-.048.27-.023.218-.054.433-.07.652-.02.27-.078.535-.117.8-.047.36-.09.715-.14 1.07-.048.329-.114.65-.15.977-.054.45-.081.899-.136 1.348-.062.527-.082 1.055-.121 1.582-.023.293-.023.586-.031.875-.012.508-.004 1.016.015 1.52.012.37.051.738.067 1.109.031.574.125 1.14.11 1.715 0 .066-.009.133.026.195.004.024.004.043.008.067-.02.23.012.457.067.68v.034c.008.063-.04.137.027.196 0 .304.016.316.3.238.032-.012.06-.031.09-.031.2 0 .22-.133.223-.285.008-.118-.03-.235.032-.344.011-.008.015-.016.027-.024l-.027-.011v-.13c.074-.171.02-.347.003-.519.008-.023.012-.047-.007-.066-.008-.074.03-.16-.04-.223v-.2c-.007-.097.044-.21-.062-.288v-.07c.059-.055-.027-.106-.004-.16v-.098c0-.102-.004-.2-.004-.301 0-.063 0-.117-.082-.121 0-.012 0-.024-.004-.035.13-.078.04-.192.051-.29-.02-.367-.058-.734-.05-1.1a3.257 3.257 0 0 0-.04-.618c.04-.207.051-.414-.03-.617-.048-.086-.02-.176.007-.258.098-.035.098-.113.094-.195-.012-.192.02-.387-.094-.559v-.059c.039-.027.086-.054.094-.105.027-.207.007-.418.035-.629.035-.313.07-.629.086-.941.008-.094.047-.192-.024-.274.004-.086-.027-.176 0-.262.028-.015.024-.039.024-.062 0-.016.008-.027.008-.043.015-.027.074.074.066-.027-.008-.059-.016-.118.027-.176.028-.043-.008-.074-.058-.082l.035-.13c.043.028.062.009.082-.034.031-.063-.012-.059-.05-.063a.552.552 0 0 1 .062-.324c.093-.062.101-.164.117-.258.054-.328.09-.66.148-.988.02-.113.04-.215-.043-.313.004-.007.008-.015.008-.027.05-.008.078-.031.098-.086.047-.152.039-.285-.07-.406 0-.031 0-.063.003-.094a.386.386 0 0 0 .164-.289c.028-.328.075-.652.125-.976.02-.141.016-.282.04-.415.007-.09.128-.164-.004-.261-.024-.016.113-.133.125-.242.023-.247.07-.493.128-.735.047-.203.04-.43.122-.617.144-.348.183-.719.293-1.074.093-.301.109-.625.207-.934.003-.02-.004-.05-.004-.078 0-.02.004-.039.007-.062.106-.114.059-.262.086-.391.004-.023.008-.043.008-.066.055-.172.113-.348.156-.524.032-.137.102-.266.067-.418.015-.039.043-.082.031-.129a.255.255 0 0 0 .059-.226c.004-.024.004-.047.008-.067.023-.086.101-.156.066-.258a.431.431 0 0 1 .031-.222c.059-.031.067-.078.059-.133 0-.023.004-.043.004-.066.035-.012.03-.04.027-.067.023-.055-.098-.144.04-.176.003 0 .007.008.01.008l.009-.012c-.008 0-.012 0-.024.004-.02-.082.067-.156.02-.242-.02-.035.004-.066.008-.097.097-.208.105-.43.136-.649.016-.137-.004-.273.028-.41.015-.055.02-.078.082-.082.316-.027.597-.172.898-.254h.063c.011.035.035.043.062.012.031-.028.086-.012.113-.051.078-.012.16-.016.215-.094.16.051.27-.094.418-.101.059-.008.14.02.176-.07.066-.024.125-.094.203-.083.195.028.36-.039.504-.164.098-.008.219.02.23-.129.008-.011.02-.023.028-.035.082-.058.074-.144.07-.23.008-.453-.055-.903-.035-1.36.02-.004.035-.011.023-.035-.05-.172-.004-.347-.035-.52 0-.066.031-.136-.023-.195v-.617c.07-.066.008-.094-.035-.129-.036-.25-.07-.5-.11-.746.012-.027.008-.05-.02-.066.032-.07-.023-.121-.038-.176-.09-.383-.215-.754-.477-1.059-.004-.043-.027-.062-.066-.066-.075-.106-.192-.16-.317-.254h.446c.023.047.066.016.097.023.02 0 .04.004.063.008.004.02.008.035.035.024.226.05.422.172.61.3.027.083.097.11.167.13 0 .019.008.035.031.027l.07.07c-.015.05.009.07.06.066.054.125.128.23.261.282 0 .023.008.035.031.039.04.152.133.27.258.355-.004.067-.008.121.05.176.247.219.286.543.368.832.04.14.031.277.195.332 0 .02 0 .04.004.063-.086.109-.039.191.063.261-.031.032-.02.063 0 .094-.016.004-.05.012-.05.016.003.125.007.254.12.34 0 .011 0 .023-.004.035-.004.035-.023.078.032.097a.862.862 0 0 0 .027.282c.07.254.031.52.098.773.035.156-.012.313.015.477.024.117-.015.27-.015.406.007.433-.02.867-.063 1.3-.004.07-.04.16.031.212.125.09.114.199.078.316-.004-.055-.03-.129-.082-.125-.062.008-.082.086-.093.148v.036c.011.273-.086.53-.141.8-.059.313-.211.602-.297.914-.047.18-.18.36-.164.532.027.289-.066.53-.18.773-.265.574-.43 1.176-.55 1.793-.043.211-.059.426-.184.613.016.032-.031.078.02.098.023.098-.11.133-.086.227 0 .027-.008.058.03.062-.12.418-.124.863-.288 1.27.004.027.004.058.043.054a6.36 6.36 0 0 0-.145 1.016v.035c-.004.137-.004.27-.012.402-.007.282-.023.563-.02.836.013.496.06.993.095 1.489.004.066-.075.132-.028.18.16.156.075.363.141.542.133.364.156.754.566.965.317.16.621.317.97.39.003.02.007.036.034.024l.098.012c.25.101.52.078.781.117.035.016.074.02.117.043.157.07.293.176.457.242.262.11.528.192.77.352.234.16.512.265.766.41 0 .023.007.035.03.027.145.067.325.098.427.207.199.207.468.305.668.516.168.176.394.293.57.477.238.253.484.496.734.734.07.066.09.184.203.21.036.048.063.099.11.13.035.027.062.105.129.058.05-.039.086-.097.074-.164a.497.497 0 0 0-.156-.277 1.137 1.137 0 0 0-.188-.293c-.422-.496-.84-.992-1.344-1.406-.187-.157-.375-.313-.582-.438-.03-.047-.062-.094-.125-.097a582.63 582.63 0 0 1-.035-.036c-.015-.046-.05-.062-.094-.066a.215.215 0 0 0-.164-.098c-.12-.09-.238-.183-.39-.222-.098-.055-.192-.114-.29-.168-.003-.024-.074-.07.016-.063.188.012.38.024.567.047.25.031.5-.02.75.016.16.02.308-.032.468-.02.18.016.356.082.54.043.199-.035.398 0 .597.004.047 0 .11.035.145-.031.02-.004.047-.004.066-.008.008.05.047.035.074.04.098 0 .2-.02.29.003.273.066.546.012.82.031.07.004.117-.011.078-.097h.273c.055.082.133.113.235.101.156-.02.316-.058.476-.035.254.035.492-.086.739-.094.164 0 .324 0 .484-.004.012.04-.016.121.062.09.055-.023.125 0 .168-.058.106-.055.215-.024.325-.004.113.043.226.062.343.07.22.008.426-.027.63-.105h.034c.11.027.211-.047.325-.032.007.008.015.008.027.008.234.008.465.023.7.02h.144c.16.011.332.023.453-.13.035 0 .07 0 .105.005.114.113.242.05.356.015.097-.031.226-.035.258-.172a.27.27 0 0 0 .03-.011c.071.015.095-.036.122-.086.012-.02.023-.035.035-.051.094-.129.191-.133.29-.008.05.063.1.14.202.055.02 0 .032-.004.024-.031.015-.016.027-.032.039-.047.125-.024.054-.09.035-.149-.027-.133-.098-.242-.168-.355-.004-.043-.02-.078-.063-.098a.074.074 0 0 0-.007-.031c0-.067-.051-.094-.09-.133-.082-.246-.235-.46-.301-.715.004-.047-.016-.078-.059-.094-.046-.097-.132-.18-.136-.296.011-.047.023-.102-.055-.102a1.353 1.353 0 0 1-.176-.32c.004-.067 0-.121-.082-.14a2.37 2.37 0 0 0-.226-.509c.136-.129-.063-.078-.07-.129 0-.047-.016-.082-.06-.101-.038-.059.063-.168-.07-.196.008-.039-.02-.062-.035-.097 0-.035.028-.074-.027-.098-.004-.02-.008-.039-.008-.062.02-.055-.016-.078-.059-.102l-.007-.094c.035-.082.093-.16-.024-.23-.015-.012-.008-.059-.011-.09-.012-.074-.024-.148-.09-.2 0-.023-.004-.046-.008-.07.058-.007-.031-.132.078-.097.07.082.102.195.2.258.019.062.03.125.093.168.066.074.102.175.195.226.02.051.012.125.094.13.117.226.336.35.516.515.062.058.117.148.23.136.004.016.008.032.031.024.024.004.043.004.067.012.062.066.144.066.23.054h.227c.02.008.031-.004.031-.023.125-.067.273-.098.356-.227.257-.175.367-.441.382-.73.024-.504-.129-.969-.351-1.414-.059-.121-.114-.239-.172-.36-.035-.066-.043-.152-.117-.195 0-.047-.024-.078-.067-.098a.106.106 0 0 0-.066-.101c.047-.07.094-.012.137.004.175.082.308.226.453.351.222.196.41.434.59.672.222.293.445.586.613.914.14.266.3.524.445.79.164.296.324.597.453.91-.004.011-.015.015-.02.023.009.004.016.008.024.008.028.066.086.117.07.199-.015.055.024.074.055.098 0 .023.008.043.008.062-.012.047 0 .09.035.125.012.043.043.086.024.133-.164.152-.278.344-.414.512-.157.191-.313.379-.43.593-.02.016-.05.032-.059.051-.054.145-.183.235-.246.38-.058.124-.199.218-.273.35-.004.008-.008.016-.008.028-.129.094-.156.262-.273.375a1.546 1.546 0 0 0-.336.477c-.04.035-.102.054-.102.128-.012.008-.02.02-.031.032-.149.16-.274.336-.39.52a.253.253 0 0 0-.032.034c-.117.07-.145.211-.242.297-.008.004-.008.008-.012.016-.035.016-.04.043-.035.078-.04.04-.106.055-.102.129-.082.101-.16.2-.242.297-.004 0-.008.008-.012.015-.035.016-.039.043-.039.079-.008.011-.02.02-.031.03-.02 0-.035.009-.027.032-.035.055-.07.11-.102.164-.031.02-.07.04-.086.07-.183.317-.449.575-.656.871-.082.043-.106.133-.164.196a.205.205 0 0 0-.102.097c-.152.106-.238.274-.386.387-.118.13-.239.262-.356.395-.066.039-.113.101-.16.164-.043 0-.04.047-.063.062-.046.035-.097.063-.101.13-.027 0-.059-.005-.066.03-.063.11-.176.176-.227.293-.012.012-.02.024-.031.036l-.098.093c.027.028.04.047.043.075a.165.165 0 0 0-.043-.075c-.098.07-.121.192-.195.282-.258.304-.516.609-.774.91-.25.293-.504.578-.746.875-.316.386-.637.77-.914 1.183a8.806 8.806 0 0 1-.195.176c-.047-.016-.063.008-.07.05-.008.013-.02.024-.032.036-.07.031-.05.11-.086.164-.011.024-.027.043-.035.067-.012.003-.015.007-.027.007.012.008.015.016.027.02.067.066.074.172.16.23.008.035.04.028.067.035.02.028.047.055.062.086.102.172.184.188.328.047.078-.078.157-.152.22-.238.35-.5.737-.969 1.105-1.453.109-.14.265-.254.312-.434a.208.208 0 0 1 .113-.133c.075-.03.118-.09.164-.144.391-.45.707-.953 1.13-1.371.062-.067.109-.184.234-.172.023.008.03 0 .023-.023.125-.133.238-.274.367-.395.442-.414.86-.848 1.262-1.297.102-.101.203-.203.277-.328.004-.004.008-.008.008-.016a.14.14 0 0 0 .04-.027c.394-.484.745-1 1.116-1.508.024-.031-.02-.043-.007-.066.035-.012.027-.043.03-.063.048 0 .071-.02.067-.066.012 0 .024 0 .032-.008.207-.168.312-.414.472-.617.024-.027.016-.05-.015-.063-.016-.078.015-.125.093-.14.168-.098.274-.258.383-.406.293-.41.563-.84.863-1.25.223-.301.461-.583.676-.887.176-.25.192-.45.031-.692l-.011-.066c.008-.027 0-.05-.024-.066-.011-.036-.015-.07-.031-.106a10.946 10.946 0 0 0-.707-1.52c.027-.128-.02-.222-.14-.273-.22-.219-.294-.527-.47-.773-.195-.274-.398-.547-.574-.832.004-.028-.004-.032-.027-.028-.066-.054-.074-.172-.191-.168a.106.106 0 0 0-.067-.101c-.039-.067-.133-.14-.117-.196.035-.148.008-.296.02-.445.004-.074.03-.11.109-.105.254.015.457-.121.672-.235.023.012.031-.004.031-.023.035-.02.074-.043.11-.066.148-.106.277-.235.394-.368.055-.062.188-.023.176-.152.035-.04.11-.035.125-.098.023 0 .035-.008.039-.03a.056.056 0 0 0 .023-.009c-.008-.008-.015-.011-.023-.02.012-.05.055-.077.097-.105.024.008.032-.004.032-.023.07-.02.101-.063.09-.133 0-.008.004-.02.007-.035.121-.012.133-.094.125-.192.075-.02.063-.082.067-.136.023-.028.113-.024.039-.09.004-.11.129-.137.152-.227.09-.3.235-.586.258-.906 0-.066.055-.133 0-.2.082-.097-.027-.194.008-.292.02-.266-.059-.508-.16-.746-.02-.047-.047-.098-.098-.02-.055-.05-.129-.086-.133-.176.02-.003.047-.02.051.016.008-.004.008-.012.012-.016-.004.008-.008.016-.012.016.023 0 .035.004.027.031h.012-.012c0-.015.024-.027.004-.043-.011-.011-.02-.007-.023-.004.008-.011.012-.023 0-.039-.16-.336-.469-.511-.778-.68-.148-.124-.347-.097-.52-.163-.276-.114-.573-.121-.878-.078 0-.204-.004-.415 0-.622.004-.09-.035-.183.027-.265.04.023.078.023.121.015ZM23.98 57.88c-.015 0-.027.004-.027.012.004-.008.012-.012.027-.012.024 0 .036.016.04.031-.004-.015-.016-.031-.04-.031Zm.942-6.707s-.008 0-.012.004c0 0 .008 0 .012-.004 0 .004 0 .008.004.012 0-.004-.004-.008-.004-.012Zm1.46-5.649s-.019-.011-.027-.011c.008 0 .02.008.028.011Zm.06-.27v-.026.027Zm2.355-7.206c.23.371.32.789.383 1.21.101.684.133 1.376.097 2.067-.02.356-.015.711-.03 1.067 0 .074-.048.078-.102.097-.266.09-.543.145-.801.258-.043-.012-.067.02-.102.035a.867.867 0 0 0-.387.114c-.109.007-.214.046-.32.078-.203.054-.406.125-.62.117-.044 0-.09.02-.102-.047-.024-.18-.051-.36-.028-.543.07-.531.074-1.07.121-1.605 0-.02.004-.036.008-.055.031-.031.023-.074.02-.113v-.098c0-.035 0-.063.003-.098a.336.336 0 0 0 .028-.222c.015-.153.015-.313.043-.461.062-.274.039-.563.125-.836.012-.043.023-.098-.055-.106.024-.105.078-.207.063-.316-.008-.074.035-.09.09-.098 0 .024-.004.055.007.063.035.039.043-.016.047-.024.04-.125.13-.226.184-.343.074-.086.148-.172.222-.262.059 0 .079-.043.098-.09.137-.059.191-.227.352-.258.047.059.109.024.164.027.226.079.367.247.488.442Zm1.832-1.984c.008.003.02.011.027.011-.008 0-.02-.008-.027-.011Zm.543 21.226v-.031a.239.239 0 0 1 .047.02l-.047.011Zm.117.027s-.016-.007-.02-.011c.004-.004.004-.012.008-.012.008 0 .02.008.032.008-.008.008-.012.015-.02.015Zm5.473-26.656c.043-.074.117-.156.203-.137.101.02.183-.007.273-.027.035 0 .078.027.102-.023.164-.012.32-.02.484-.032.106.055.219.02.328.024.055 0 .11 0 .164.004 0 .008.008.015.008.023l.024-.023c.27.015.539-.028.808.058a.25.25 0 0 1 .184.207c.023.094-.055.168-.149.215-.316.16-.648.086-.976.098-.356.015-.703-.09-1.063-.106a.524.524 0 0 1-.316-.125c-.043-.043-.113-.082-.074-.16Zm6.71 24.281c.087.102 0 .153-.062.215-.039-.015-.062-.004-.078.028a.017.017 0 0 0-.016.015c-.156.043-.3.13-.464.156-.059.012-.133.004-.16.079H42.5c-.074-.07-.355-.055-.457.03h-.125c-.012-.019.004-.058-.04-.058-.038 0-.026.035-.034.059-.028.015-.051.047-.09.035-.035-.137-.149-.11-.242-.105-.07 0-.164.062-.211.035-.125-.075-.242-.047-.364-.02h-.191c-.043-.004-.09-.004-.129-.012a.092.092 0 0 0-.074-.05l-.605-.012c-.04 0-.055.027-.075.055-.031-.008-.062-.012-.093-.024-.09-.125-.215-.039-.325-.054-.054 0-.11 0-.16-.004-.191-.07-.39-.024-.586-.028-.039-.004-.086-.004-.129-.008-.02-.046-.066-.027-.097-.027-.426-.016-.852.012-1.278-.027-.12-.012-.254-.028-.379.027h-.097c-.024.031-.047.055-.074.063.027-.008.05-.028.074-.063h-.196c-.035-.004-.066-.008-.097-.008-.008-.023-.028-.027-.051-.027-.453 0-.906 0-1.36-.004a.2.2 0 0 0-.117.04H33.57c-.226-.044-.453-.087-.68-.126-.023 0-.046-.004-.066-.004a.94.94 0 0 1-.66-.203c-.047-.031-.059-.078-.07-.125-.043-.144-.117-.297-.13-.43-.01-.175-.179-.328-.073-.515-.118-.133.03-.313-.082-.45-.016-.019-.028-.054-.02-.074.063-.168-.047-.328-.008-.496a.554.554 0 0 0-.066-.39c-.043-.075.015-.13.012-.196-.008-.449-.024-.902-.047-1.355a39.081 39.081 0 0 1-.055-1.512c-.008-.469-.027-.937-.04-1.402v-.293c.017-.11-.007-.219.032-.328v-.063c.008-.035.043-.058.031-.097 0-.024.004-.043.008-.067.028-.023.028-.062.028-.098v-.062c.039-.094.046-.195.062-.293 0-.02.004-.043.004-.066.04-.036.035-.082.027-.13v-.062c.035-.125.075-.25.067-.379.066-.144.023-.3.062-.449a2.67 2.67 0 0 0 .098-.633.603.603 0 0 0 .039-.261c.066-.274.039-.56.098-.833.043-.207-.008-.43.043-.625.105-.41.066-.824.105-1.23.02-.203-.016-.43-.043-.645-.012-.117-.07-.222-.074-.335-.004-.204-.05-.403-.09-.598-.043-.184-.113-.36-.16-.535a3.543 3.543 0 0 0-.43-1.043 2.418 2.418 0 0 0-.363-.54c-.086-.1-.133-.199-.121-.331.027-.5.015-1 .062-1.496.02-.207.09-.41.059-.622-.008-.07.058-.125.035-.195.043-.3.07-.605.059-.91l.011-.098c.063-.047.02-.109.024-.164 0-.066.047-.136-.028-.191.004-.234.114-.45.122-.684.007-.234.05-.465.078-.695.043-.379.062-.758.156-1.133.031-.12.031-.25.062-.375.043-.207.153-.383.305-.531.094-.02.133-.129.215-.156.363-.11.73-.227 1.117-.239.09.024.172-.02.258-.03a.335.335 0 0 0 .293-.09c.016-.012.031-.02.047-.028.11 0 .219-.004.328-.012-.11.008-.219.008-.328.012.02.14.14.094.21.086.286-.024.567-.043.852-.07.106-.012.215.03.317-.02.004.04.015.07.066.055.16-.016.262.023.293.215.055.343.145.68.254 1.007.117.352.36.52.734.48.012 0 .024-.007.032-.003.277.156.57.035.855.059a26.82 26.82 0 0 0 1.582.085c.121.004.25 0 .375-.023a.682.682 0 0 0 .367-.117c.149-.098.258-.227.383-.352.215-.215.29-.508.484-.726.02-.016.043-.028.063-.043.05-.008.066-.043.066-.086.067-.067.176-.078.227-.16.031-.008.059-.016.074-.047.113-.07.227 0 .32.027.13.04.258.04.387.078 0 .02.008.035.031.024.13.023.258.047.387.074.004.02.012.035.035.023.141.04.282.075.426.11.012.043.04.023.067.02l.355.042c.074.094.191.09.293.121.207.082.418.133.574.325.094.117.145.246.207.375.043.093.082.187.13.28-.009.052.03.083.058.118 0 .309.105.61.074.922-.008.027-.016.055.023.066v.13a.2.2 0 0 0 0 .23c-.011.23-.027.468-.03.703 0 .426.066.851.038 1.277-.008.117.012.234-.047.344-.039.074.035.117.043.183.032.266.055.524.032.79-.036.445.054.894.02 1.343-.024.364.007.73.01 1.094.005.234.02.473.016.703-.011.43 0 .856-.004 1.281 0 .336.008.676.012 1.012a12.1 12.1 0 0 1-.031 1.191c-.02.196.027.395-.023.579-.055.203.015.394-.004.59-.043.41.004.824-.086 1.234-.024.105.011.219 0 .336-.032.383-.024.773-.028 1.16 0 .09.012.18.02.27-.047.023-.027.062-.027.097-.004.024-.004.043-.008.067-.04.011-.032.039-.028.066 0 .152 0 .3.004.453 0 .133-.097.258-.011.39l.035.098-.024.024c.008.004.016.004.024.008 0 .023 0 .043-.004.066-.043.043-.043.09 0 .129 0 .043 0 .086.004.129-.012.004-.016.008-.028.012.012.007.016.015.028.023v.098c-.063.043-.024.086 0 .129 0 .054 0 .109.004.164a.443.443 0 0 0-.008.359v.094c-.047.047-.07.09-.04.168.02.054.036.18-.015.18-.101.007-.172.093-.27.085-.093-.015-.163.075-.257.063-.063.023-.106.082-.18.094-.234.023-.406.18-.547.332-.289.308-.344.714-.34 1.125-.03.183.02.359.04.535.011.105.015.207.015.308-.004.055.035.078.063.118.035.257.101.503.187.75.008.035.016.07.023.109.004.008.016.016.02.027l.305.75c-.016.024.004.032.023.032l.04.097c-.005.024 0 .031.023.024Zm2.176-1.648c.012.012-.003.066-.015.07-.063.02-.051.07-.043.106.023.156-.012.3-.055.445a.443.443 0 0 1-.437.254c-.13-.004-.246-.09-.328-.164-.106-.098-.211-.2-.32-.297-.247-.223-.407-.508-.602-.766-.149-.199-.309-.39-.422-.62.039-.208.054-.419.129-.618.199-.383.55-.465.933-.488.063-.004.117.004.16.05a.17.17 0 0 0 .122.07c.054.067.109.138.164.204 0 .102-.016.211.129.234.003.02.003.04.007.059.012.066-.011.148.09.16l.035.035c.078.192.114.399.203.582.106.22.098.48.25.68Zm1.063-7.305c.133.012.266.024.398.032l.067.011.066.024c.02.054.059.03.098.023.144.05.289.09.422.172.172.148.32.324.52.445.011.016.019.028.03.04a.481.481 0 0 0 .126.265c.011.027.027.063.035.094-.059.074.007.133.03.195.09.746-.175 1.387-.6 1.973-.247.34-.575.586-.923.812-.113.074-.226.14-.355.18-.04.012-.094.039-.094-.035.008-.227-.043-.453-.02-.684.032-.273.024-.55.02-.824-.011-.723.04-1.441.059-2.16a8.315 8.315 0 0 0 0-.442c0-.086.027-.129.12-.12Zm-.086-2.078c.02-.347-.016-.695.023-1.047.024-.23-.007-.468-.007-.703 0-.398.011-.797.015-1.191.004-.219.012-.442 0-.664-.008-.153.032-.23.196-.203.168.058.336.074.511.058.047-.004.094-.031.137-.004.164.094.352.117.52.192l.007.007c.328.149.59.383.809.668l.07.227c-.011.066.04.11.063.16.004.035.008.067.008.098v.523a1.966 1.966 0 0 1-.247.864c-.011.023-.011.05-.02.078a.182.182 0 0 0-.065.129c-.024.011-.047.023-.067.039-.047.011-.062.043-.062.09-.086.18-.27.265-.399.41-.015.015-.058.011-.09.015a1.482 1.482 0 0 0-.515.297c-.047 0-.094.004-.14.004l.01-.05h-.003c-.121.046-.27.007-.36.132-.011 0-.023.004-.035.004h-.226c-.102.008-.133-.055-.13-.137Zm0 0"></path></g><path fill="#fff" d="M31.473 44.45c-.043.218-.094.41-.059.612-.004-.199.211-.374.059-.613ZM24.71 20.453s-.003.004-.003.012v.004l.004-.016ZM24.742 20.398c-.031-.023-.05-.07-.101-.058.027.035.09.05.07.113.027-.012.113.012.031-.055ZM24.871 20.566v-.003l-.004.003h.004ZM24.887 20.57h-.016c0 .008.008.012.008.016.004-.004.004-.008.008-.016ZM24.64 20.332h-.007l.004.008.004-.004ZM24.867 20.563c.004-.024 0-.04-.031-.032-.004.024.012.032.031.032ZM24.871 20.566h-.004v.004l.004-.004Zm0 0"></path><path fill="#fff" d="M24.836 20.535h.004v-.004s-.004 0-.004-.004v.008ZM24.828 20.5s-.008.004-.012.008c.004.008.012.012.016.015a.056.056 0 0 0-.008-.023ZM15.742 19.137c.012-.012.024-.02.035-.028-.023-.007-.03.008-.035.028ZM48.832 46.656h.012c.004-.015 0-.015-.008 0ZM31.074 46.543c.09-.156.117-.328.13-.504a1.562 1.562 0 0 0-.157.484v.043c.012-.007.02-.015.027-.023ZM43.09 54.035l-.024-.023c-.011.023 0 .027.024.023ZM25.527 26.805v.023h.028l-.024-.023ZM42.113 43.066c.094-.035.188-.058.278-.101.257-.117.484-.285.625-.54.066-.12.125-.25.203-.362.125-.063.14-.204.222-.297.024-.016.032-.04.032-.067.03-.039.058-.086.09-.129.015-.09.113-.215-.086-.226-.012-.035-.032-.035-.059-.02l-.066.02c-.063-.114-.168-.082-.266-.09-.086.004-.176-.035-.262.023-.082-.043-.168-.027-.258-.02-.058-.07-.05-.16-.058-.237a8.693 8.693 0 0 0-.387-1.743c-.14-.43-.285-.859-.52-1.25-.19-.324-.37-.664-.66-.93-.175-.163-.324-.355-.527-.492a4.684 4.684 0 0 0-1.305-.593c.098-.196.184-.39.215-.614.031-.25-.117-.437-.191-.652a.37.37 0 0 0-.238-.254c.07-.058-.008-.066-.032-.094-.027-.101-.129-.062-.187-.093l-.067-.008c-.164-.074-.332-.035-.504-.031-.27.007-.503.105-.718.246a.723.723 0 0 0-.282.351c-.082.282-.093.575.024.864.09.218.082.218-.121.289-.45.16-.883.347-1.254.656a.198.198 0 0 0-.098.098c-.015 0-.039-.004-.047.003-.27.266-.539.536-.664.907-.133.054-.11.203-.175.297-.23.32-.31.703-.434 1.07-.055.164-.086.344-.137.52-.094.308-.16.62-.222.937 0 .047-.008.094-.04.129-.066.086-.066.195-.09.293 0 .011-.003.02-.007.031-.05.023-.024.063-.024.098-.015.054-.027.11-.039.164-.02 0-.035.008-.023.031-.004.027-.004.047-.008.074-.05.031-.082.063-.039.125a.085.085 0 0 0-.027.035c-.024 0-.055-.011-.067.028a5.68 5.68 0 0 1-.258.008c-.058-.024-.066.011-.07.058-.14.004-.281.004-.422.008-.02-.008-.027.008-.031.023-.055 0-.121-.004-.121.07 0 .098-.043.2.023.29.04.164.063.336.141.484.14.387.34.723.77.84.066.023.12.07.195.066.097 0 .191.004.289.008.129.059.262.024.394.012.079.039.149-.031.227-.024.078.012.152.047.23.04.356-.032.711-.004 1.063-.024.457-.023.91-.066 1.371-.039.074.05.148.047.227 0 1.488-.008 2.976-.031 4.449-.242.023.015.027-.004.035-.02Zm-4.62-7.77c.003-.019.003-.038.007-.062a.529.529 0 0 1 .438-.5c.124-.023.257-.03.386-.02.07.005.184-.034.211.036.063.148.227.242.23.41 0 .172.04.348-.05.52-.078.144-.164.246-.352.21-.066-.011-.136 0-.207 0v-.007h-.176c-.359.008-.554-.223-.488-.586Zm-3.38 6.013c.094-.32.168-.645.285-.957.016-.036.012-.075.016-.114a.056.056 0 0 0 .023-.008c-.007-.007-.015-.011-.023-.02 0-.023 0-.042-.004-.07.106-.078.117-.21.156-.32.114-.308.207-.629.309-.941.035-.02.059-.043.055-.09.066-.148.129-.297.203-.441.031-.059.082-.11.031-.184.012-.012.023-.02.035-.031.14-.074.145-.238.23-.348.305-.39.645-.754 1.098-.984.051-.028.051-.059.024-.098.023-.05.074-.027.11-.043 0 .04.019.047.05.031.098-.039.203-.082.3-.125.094-.02.196-.007.259-.101.003-.008.011-.016.015-.024-.004.008-.012.012-.015.024.128-.028.265-.016.39-.063.043-.004.086-.004.133-.007-.008-.008-.012-.02-.02-.028.008.008.012.016.02.028.258.039.52-.012.777.046.012.04.035.036.063.024.023.004.043.004.066.012.012.039.035.03.063.02.023.003.047.003.066.007.14.047.281.09.422.137.012.039.04.03.066.023.012.004.02.008.032.008.066.02.132.039.195.062.012.043.039.024.066.02.047.02.067.082.13.074.011.043.038.024.062.02.011.004.02.007.031.015.016.047.05.063.098.067.008.035.043.02.066.03 0 .017.008.032.031.024.399.27.723.61.977 1.016a.131.131 0 0 0 .062.102c.012.043.024.082.04.125-.004.023.003.03.027.03.215.317.351.673.472 1.036.012.031-.023.047-.015.07-.004.051-.02.102.058.102.106.367.23.726.27 1.113.016.152.086.3.11.461.007.059.019.113.011.176-.098.015-.2-.031-.289.035h-.066c-.075 0-.149.004-.227.008h-.098c-.101 0-.203-.008-.304-.008-.309 0-.621-.008-.93.008-.105.004-.223-.067-.32.027h-.325c-.226.012-.457.028-.683.043-.031-.008-.063-.035-.098-.012-.031-.023-.05-.02-.07.012-.07-.02-.125.035-.188.043-.007-.047-.027-.066-.066-.031-.023 0-.043 0-.066.004-.168-.047-.332-.051-.489.039h-.129c-.242-.004-.48-.035-.714.02l-.489.011c-.172.004-.347-.039-.52.023-.226-.007-.452.02-.679.036-.066-.047-.133-.047-.191.004h-.848c-.11-.004-.191.015-.14-.168Zm7.317 1.304c-.04 0-.086-.004-.13-.004-.073-.058-.152-.047-.226 0-.023 0-.043.004-.066.008-.047 0-.094-.004-.145 0-.14.008-.285.07-.41.051-.281-.043-.547.055-.82.043-.028 0-.055.027-.086.039-.012 0-.02 0-.031-.004-.04-.008-.078-.027-.102.024-.094.007-.191.011-.289.02l-.16.023-.13-.012a.316.316 0 0 0-.265-.004c-.05.004-.105.004-.156.008-.012-.008-.023-.024-.035-.024-.422-.039-.848-.062-1.266.04-.086-.008-.18-.04-.258.03-.035 0-.066.004-.097.004 0 .008 0 .016.004.024-.004-.008-.004-.016-.004-.024-.078-.097-.176.02-.258-.02-.02-.038-.047-.046-.07-.003-.043 0-.082.004-.125.004l-.024-.023-.011.023c-.153.004-.301.012-.45.016h-.101c-.063 0-.13 0-.192-.004h-.132c-.02 0-.043 0-.067-.004-.121-.043-.238.011-.355.023h-.063c-.148-.097-.316-.047-.476-.05-.153-.005-.309.05-.465-.044-.051-.03-.13-.023-.196-.039-.011-.035-.039-.027-.066-.03-.004-.017-.012-.032-.031-.024-.012-.004-.02-.008-.031-.008-.004-.063-.047-.098-.098-.129-.07-.121-.149-.238-.211-.363-.043-.078-.129-.18.066-.2.059-.007.114-.027.172-.023.211.016.414-.031.625-.039.028.008.051 0 .063-.027.199.015.394-.016.586-.07.078 0 .156.003.234.007.043 0 .094.008.09-.066.031 0 .058-.004.07.031 0 .05.035.031.059.027h.129c.23 0 .457 0 .683.004h1.071c.12.008.238.012.359-.008.11.016.215.012.32-.011a.108.108 0 0 0 .098 0c.066.027.133.008.195-.012.219 0 .442.008.664 0 .102 0 .211.031.309-.027.043 0 .086-.004.129-.004.066 0 .129 0 .195-.004h.879c.176 0 .355-.016.527-.012.594.012 1.184.016 1.778.012.047.012.086.027.054.086-.125.242-.257.472-.507.61-.098-.024-.168.054-.266.058-.16 0-.332.011-.48.101ZM42.297 49.145c-.074.011-.18-.079-.215.054-.027.086-.125.133-.125.215.008.172-.094.305-.121.465-.055.273-.203.527-.242.812-.004.036-.02.07-.055.07-.066.009-.039-.05-.043-.081a4.07 4.07 0 0 0-.152-.617c-.067-.192-.114-.387-.168-.583-.028-.09-.063-.18-.078-.277-.024-.14-.176-.031-.262-.066-.016-.008-.023-.02-.04-.024-.124-.035-.241.032-.362.04-.02 0-.079.042-.067.109a.32.32 0 0 1-.023.18c-.086.218-.172.437-.278.652-.105.215-.18.445-.34.636-.078-.101-.038-.214-.05-.32-.043-.394-.117-.793-.086-1.195.004-.031.008-.059-.012-.067-.148-.062-.305-.039-.45-.003-.077.023-.019.136-.034.203-.008.03-.008.066-.012.097-.031.309-.027.625-.027.938 0 .242.011.484.043.726.007.082-.075.157-.032.23.09.173.102.352.098.54 0 .047-.004.113.082.117.2.016.395.035.59.059.059.004.074-.04.09-.078.101-.247.195-.493.3-.735.106-.234.22-.465.337-.695.015-.035.042-.086.093-.078.059.008.028.07.043.11.086.233.13.483.196.73.058.218.085.445.156.66.035.11.101.168.226.156.075-.008.153-.004.227 0 .113.012.262.043.324-.055.063-.097.16-.187.184-.308.039-.254.117-.504.195-.746a12.8 12.8 0 0 0 .195-.66c.106-.399.282-.774.375-1.184-.156 0-.316-.05-.48-.031ZM35.527 49.39c-.113-.148-.265-.09-.402-.09-.207 0-.309.18-.219.372.024.058.035.11 0 .16-.027.031-.047.066-.027.102.098.156.05.332.059.5-.04.046-.04.101-.047.16-.024.101.054.238-.082.308a.297.297 0 0 1-.079-.078c-.347-.469-.671-.957-1.07-1.39-.062-.067-.09-.188-.215-.188a.78.78 0 0 0-.328.024c-.039 0-.086.011-.129 0-.164-.043-.164.054-.168.175-.004.356-.008.707-.015 1.063-.016.375-.09.75-.016 1.129.004.086-.09.175.008.258v.101c-.05.016-.05.035-.008.063l.023.515c-.019.078-.015.145.075.18.156.031.312.012.468.02.114.007.149-.04.153-.149.004-.203-.008-.406.015-.613.036-.305.094-.606.063-.914-.023-.239-.004-.48-.004-.72.156.079.203.204.281.302.25.312.461.66.68.992.156.234.305.457.512.648.101.094.242.078.34-.023.023-.027.046-.067.078-.07.101-.016.109-.012.109-.082 0-.106.023-.211.027-.317.008-.73.008-1.457 0-2.187a.375.375 0 0 0-.086-.25ZM37.992 49.012c-.191-.16-.422-.133-.637-.176-.16-.031-.312.074-.445.168-.187.133-.347.3-.484.484a1.212 1.212 0 0 0-.211.582c-.047.367-.07.742-.102 1.11-.011.18-.023.36.028.543.12.445.402.71.836.855.246.086.472.09.687-.066.234-.168.402-.403.516-.657.226-.503.304-1.042.332-1.585.02-.211-.008-.426-.055-.625-.066-.27-.258-.458-.469-.637Zm-.316 2.578c-.055.215-.219.347-.473.34a.536.536 0 0 1-.484-.383c-.063-.234-.032-.473-.02-.707.02-.324.059-.645.086-.965.016-.191.164-.348.434-.398.234-.047.46-.036.625.191.047.07.082.137.082.219v.324c.008.477-.133.93-.25 1.383ZM42.242 46.297c.117-.055.223-.129.317-.215a.661.661 0 0 0 .246-.465c.011-.113-.059-.156-.082-.234-.059-.219-.16-.418-.399-.485-.406-.12-.82-.043-1.23.004-.102.012-.14.11-.133.207.05.438-.016.871-.02 1.313v.871c0 .137.086.219.184.277.102.063.21-.054.242-.222.047-.254.035-.512.035-.77 0-.043-.015-.121.059-.098.082.032.168-.109.25.032.098.172.148.36.238.531.082.152.211.281.239.465.027.187.082.203.257.129.059-.024.117-.07.176-.075.14-.011.102-.101.07-.167-.16-.333-.277-.684-.48-1-.05-.075-.004-.079.035-.098Zm-.14-.45c-.192.083-.395.071-.598.102-.047.008-.074-.027-.074-.082v-.16c0-.062-.008-.121.004-.18.015-.078.039-.152.156-.129a.335.335 0 0 0 .172-.023c.18-.055.324.027.445.152.082.09.027.262-.105.32ZM33.953 47.148c.09-.242.16-.492.219-.738.086-.398.223-.805-.016-1.2.024-.007.04-.03.028-.046-.121-.14-.246-.273-.45-.273-.183-.04-.359-.07-.543.023-.183.09-.21.277-.312.41-.211.281-.203.617-.277.93-.051.21.011.43.003.64-.003.075.028.176.079.22.183.16.359.324.64.34.332.015.563-.13.63-.306Zm-.754-.37c-.07-.114-.05-.239-.05-.36.019-.355.14-.695.18-1.05.015-.141.269-.192.374-.083.106.11.164.238.145.403-.051.359-.157.707-.25 1.058-.02.074-.02.215-.13.211-.105-.004-.206-.074-.269-.18ZM36.27 47.324c.109.008.125-.043.085-.136l-.292-.747c.136-.078.296-.093.394-.277.066-.121-.004-.328.2-.375.003 0 .003-.031 0-.047-.094-.222-.153-.472-.403-.586-.258-.113-.524-.203-.813-.21a.536.536 0 0 0-.476.226c-.028.043-.117.035-.11.09.016.129-.062.238-.042.367 0 .035-.028.074.023.098-.008.14-.05.28-.023.421.003.043.093.04.062.106-.02.016-.063-.031-.063.016-.003.12-.07.238-.035.359.043.176.004.332-.039.5-.015.055-.023.203.102.25.082.05.172.039.262.027.07.02.086-.02.097-.082.035-.27.059-.543.067-.82.199-.078.316-.024.382.191.067.2.102.407.2.594.129.242.21.25.418.047.004-.004.004-.012.004-.016Zm-.477-1.34c-.129.012-.258-.004-.387.008-.09.004-.082-.047-.09-.097l.012-.29c.027-.023.07-.035.04-.082l.007-.007c-.008-.004-.008-.02-.016-.02.012 0 .008.02.016.02.043.03.074-.032.117-.016.043.066.106.023.16.027l.098.012c.004.016.008.035.031.02.098.007.192.011.274.078-.008.02 0 .027.02.02.12.081.124.144.015.238-.086.074-.192.085-.293.093ZM38.672 45.734c-.067-.222-.172-.414-.375-.55-.262-.176-.563-.2-.809-.235-.3-.008-.32.008-.308.246.008.164.03.328.054.489.047.34.114.68.16 1.02.032.237.083.468.114.702.023.16.105.203.258.153.37-.121.656-.332.808-.707.02-.051.063-.118.07-.157.044-.21.258-.379.133-.636-.05-.098-.066-.22-.101-.332Zm-.332.473c-.055.258-.207.477-.348.695-.027.043-.07.086-.133.07-.054-.015-.027-.074-.039-.109-.12-.398-.12-.82-.234-1.218a.57.57 0 0 1 0-.282c.102.043.2.032.293.051.383.09.547.371.46.793ZM34.61 34.527c.058.106.128.211.152.328.058.286.207.54.277.82.035.126.223.2.277.122a.489.489 0 0 0 .094-.395c-.062-.332-.168-.652-.25-.98-.027-.113-.066-.211-.043-.332.012-.074-.265-.242-.363-.246-.133-.008-.285.129-.254.246.04.144.04.3.113.437ZM33.64 36.172c.192.098.387.176.57.293.075.047.185.086.282.035.078-.04.11-.121.145-.195-.059-.059-.02-.145-.106-.196-.113-.066-.199-.16-.332-.207a.667.667 0 0 1-.297-.226c-.101-.137-.289-.207-.441-.305-.016-.012-.043-.031-.055-.027-.12.054-.258.093-.355.176-.035.03-.14.144-.031.253.175.184.406.29.625.399ZM39.188 47.29l.011.065c.051.247.063.247.305.258.289.016.57-.05.855-.035.04.004.07-.016.102-.031.082-.047.078-.14.05-.203-.023-.051.036-.164-.09-.157-.202.016-.405-.027-.605.032-.074.02-.125-.004-.129-.094 0-.14-.003-.281-.011-.422-.004-.078.043-.066.094-.07.109 0 .214.004.324-.004.41-.035.41-.035.398-.379v-.016c.012-.074-.027-.082-.094-.09-.226-.015-.445.04-.664.063-.074.008-.12.023-.125-.082a4.85 4.85 0 0 0-.062-.527c-.027-.133.066-.164.148-.16.157.007.305-.043.461-.04.426.008.317.047.352-.355.008-.102-.035-.137-.137-.125-.289.027-.582.055-.863.129-.293.078-.297.09-.278.39-.054.016-.035.06-.03.094-.005.024-.005.047-.009.067-.046.07-.023.152-.023.222.008.196-.035.395.02.586l-.024.012.023.023a.033.033 0 0 1 0 .028l-.023.011c.008.012.016.016.023.028 0 .012.004.02.008.027v.391l-.011.355ZM33.559 13.488c.289-.011.574.02.859.055.023 0 .043.008.062.008.11.02.122.113.137.195-.012.035.004.059.035.078 0 .028.016.04.043.04l.008.007c-.031.09.043.152.07.23.032.102.11.176.164.262.008.067.055.125.043.192-.015.027.004.03.024.035 0 .11.012.219-.031.32-.012.004-.02.008-.028.012.012.008.016.015.028.023-.078.094-.094.211-.13.32-.066.024-.062.079-.054.133a1.68 1.68 0 0 0-.11.485l-.023.023.024.012c.004.012.004.02 0 .027-.02.004-.032.012-.028.035.016.079.024.153.04.227-.008.055.007.098.054.129v.039c-.027.02-.031.04 0 .059.004.144.086.191.211.16.11-.024.223-.024.375-.04-.098-.074-.039-.156-.055-.202-.039-.106-.047-.215-.078-.32-.09-.25.02-.5.125-.688.293-.52.239-.934-.054-1.356-.137-.203-.301-.398-.243-.68.024-.097.008-.203.008-.308.008-.227.125-.34.356-.332.035 0 .066 0 .097.004.032.055.086.015.13.031 0 .04.01.082-.013.125a.774.774 0 0 0-.078.492c.059.364.215.7.368 1.028.164.343.183.683.046 1.023a2.409 2.409 0 0 0-.187.746c-.008.113.039.227.059.344.007.047.042.047.07.035.156-.043.312-.05.488-.066-.121-.313-.062-.602.063-.887.183-.414.175-.82-.028-1.23-.136-.286-.258-.579-.39-.868-.098-.203-.082-.418-.067-.629.004-.09.04-.164.164-.152.196.016.39.008.582 0 .121-.004.16.031.102.145-.09.171-.074.37-.121.554-.012.051-.004.14.027.164.07.055.04.098.031.16-.011.13-.007.278.098.364.063.05.078.094.102.16.03.086-.024.254.164.23.011 0 .039.047.035.067-.012.156.062.289.078.441.023.239-.086.442-.2.63a.934.934 0 0 0-.109.753c.008.035.028.043.051.04l.383-.06c.059-.007.07-.03.055-.085-.055-.2 0-.364.117-.536.27-.402.281-1.043-.028-1.418-.105-.132-.148-.289-.238-.43-.058-.097-.004-.148.102-.132.465.066.93.098 1.398.133.168.015.34.011.512.031.457.047.918.098 1.383.121.242.012.484.031.73.063.293.035.582.046.875.07.078.008.102-.016.102-.098-.008-.148-.024-.297.011-.437.032-.13-.027-.133-.113-.14-.215-.02-.43-.009-.644-.028-.516-.055-1.035-.074-1.551-.106-.305-.02-.613-.004-.918-.027-.535-.04-1.074-.035-1.613-.04-.47-.003-.477-.007-.336-.472.027-.094.074-.125.168-.12.12.01.242-.005.359-.009.258-.02.516-.023.773.004.051.047.09.012.13-.02.937.06 1.878.016 2.816.028.234.004.234-.012.234-.246 0-.059-.008-.117 0-.176.028-.16-.035-.195-.191-.195-1.235.008-2.465-.012-3.7.066-.257.016-.515.016-.773.02-.582.015-1.168.097-1.75.078a6.708 6.708 0 0 0-.887.043c-.191.016-.382.02-.578.023-.133.008-.199.078-.207.211-.011.153.094.133.188.149.297.047.59.015.886.027.008.04.04.055.07.063-.046.07-.03.144-.042.218-.012.11-.051.184-.188.18-.281-.008-.558 0-.84-.008-.148-.004-.257.004-.242.203.008.121.02.164.153.16ZM31.27 17.707l.003.063c.012.12.024.238.032.359-.008.02.008.027.023.031a.74.74 0 0 0 .133.293c-.012.059.031.106.043.16 0 .063-.016.125.055.16v.036c-.051.078.05.058.062.097.008.024-.004.055.031.067.016.027-.015.074.032.097.007.075.02.153.101.192.04.09.024.207.13.261.015.032.026.063.042.098-.004 0-.012 0-.016.004v.016c.059.086.098.187.204.234.074.082.105.195.199.262.004.082.058.125.125.156.066.055.133.113.199.172 0 .02.004.031.027.023.09.067.16.157.262.203 0 .02.008.036.031.028.086.058.172.113.258.172.024.035.05.074.106.058.074.063.175.02.257.067.125.086.266.14.418.156.047 0 .09-.008.133-.008.024.031.047.059.094.043.023 0 .047 0 .066.004.028.035.063.027.098.02l.55.011.067.031c.04.157.035.317.09.473.066.18.117.219.3.18.235-.055.481-.012.708-.067.207-.047.414-.03.617-.05.27-.028.547-.047.82-.043.25.004.375-.102.387-.36a1.13 1.13 0 0 1 .125-.484c.36-.133.684-.32.98-.563l.16-.14c.083-.043.16-.098.157-.207.168-.016.21-.184.316-.274.203-.16.32-.394.461-.613.383-.598.703-1.227.805-1.941.039-.286.082-.575.016-.864-.024-.113-.079-.16-.192-.144-.152.023-.308.062-.457.058-.16-.007-.305.094-.453.067-.34-.055-.668.023-.992.082-.473.086-.946.125-1.418.168-.324.031-.645.082-.965.113-.348.035-.695.04-1.043.086-.363.043-.723.133-1.09.148-.351.016-.699.079-1.047.122-.25.03-.496.054-.746.078-.355.03-.707.07-1.058.12-.313.048-.305-.042-.282.321 0 .059-.027.121.032.164ZM23.117 22.715c-.015-.074.09-.207-.097-.195-.145-.04-.25.082-.38.09-.417.023-.808.156-1.21.265-.063-.016-.117.016-.172.04-.188.038-.383.07-.559.151-.054.004-.117 0-.074.086v.008c-.012-.027-.027-.031-.05-.015h-.005c.016-.02.012-.036-.015-.047-.176.02-.34.113-.524.09-.004-.22-.058-.43-.101-.645-.07-.39-.153-.781-.192-1.176-.031-.293-.086-.566-.386-.707-.036-.078-.102-.062-.165-.058l-.261-.036c-.035-.046-.086-.027-.133-.027-.063 0-.129-.004-.191-.008a.206.206 0 0 0-.23-.062c-.095 0-.184-.004-.278-.004-.012-.043-.04-.055-.078-.063a3.641 3.641 0 0 0-.618-.023c-.082.043-.171.012-.257.031-.13.016-.094.11-.094.188-.07.109-.035.238-.07.355-.02.067.007.094.09.106.53.078 1.062.136 1.593.191.23.023.274.055.3.285.013.113.024.227.04.336.082.496.16.988.254 1.48.02.098-.02.114-.082.133-.426.149-.867.239-1.297.36-.488.136-.98.258-1.473.386-.035.012-.093-.015-.078.067.02.09.008.187.04.27.1.285.12.578.156.874.027.247.097.293.328.22.136.01.273.019.382-.09.051-.012.082-.012.102.054.184.559.367 1.117.555 1.672.277.812.562 1.621.836 2.433.035.11.093.13.195.125.422-.02.82-.152 1.219-.261a33.625 33.625 0 0 0 1.511-.453c.336-.11.688-.172 1.008-.317.051-.008.063-.031.028-.07.03-.129.039-.254.035-.383a9.65 9.65 0 0 1-.016-.75c.008-.266.027-.535.02-.797-.02-.797.047-1.594-.035-2.387-.004-.054-.004-.136.062-.128.11.015.18-.079.285-.079.05 0 .149-.027.149-.156-.004-.183.003-.367-.016-.547-.027-.27.008-.539-.059-.808Zm-1.12 2.691c-.368-.02-.642.196-.919.375-.226.153-.441.34-.715.395-.199.035-.406-.016-.601-.063-.477-.12-.914-.023-1.348.172-.11.047-.23.063-.32.149-.024.023-.059.02-.086-.032-.074-.144-.156-.285-.184-.445.063-.066 0-.113-.023-.172-.047-.098-.117-.2-.043-.316l.133-.012c.03.027.043.016.047-.023.027-.02.05-.04.078-.063l.011.024.024-.024c.012 0 .02-.004.031-.008h.066c.036.012.067.012.094-.02.07-.011.14-.023.2-.07.238-.027.468-.097.699-.156.132-.035.254-.117.386-.133.207-.023.407-.132.621-.097.098.015.145-.098.239-.075.097.024.172-.039.258-.074h.128c.055-.023.133-.011.165-.082.234 0 .457-.062.68-.129.109-.03.226-.047.339-.066.047-.008.074 0 .086.062.05.274.02.547.035.82 0 .067-.043.063-.086.063Zm.714-1.722c-.742.109-1.469.289-2.195.464-.211.051-.422.106-.637.145-.078.016-.129.059-.203.094.074.066.125.011.18.015-.102.075-.141.059-.278.028a.24.24 0 0 0-.226.07c-.118-.023-.215.063-.329.066-.246-.023-.464.07-.687.157-.07.027-.008.093-.04.113a.16.16 0 0 1-.14.004c.004-.05.063-.008.07-.05-.261-.08-.484.097-.726.136-.14.023-.273.082-.414.117-.082.02-.164.004-.195-.094-.043-.14-.07-.289-.121-.426-.036-.09.015-.093.066-.125.125-.066.266-.03.394-.07.082-.027.16-.047.239-.101.105-.07.258-.02.383-.059.253-.082.53-.05.777-.188.164-.09.367-.113.558-.109.02.05.04.05.063.004.055-.004.11-.008.164-.008.027.004.05.008.063-.023.148-.004.285-.059.421-.106.274.024.512-.07.75-.187.192.027.36-.051.536-.094.449-.11.898-.195 1.332-.352.101-.035.183-.082.297-.046.054.015.078.023.078.086-.004.105-.012.214.004.324.02.152-.06.195-.188.215ZM25.559 26.715v.043c.011-.016.027-.028.035-.043-.012-.02-.024-.024-.035 0ZM58.793 20.684c-.027.007-.043.011-.055-.016-.039-.082-.12-.05-.164-.035-.168.062-.34.113-.5.18-.246.105-.511.144-.765.296a1.464 1.464 0 0 0-.137-.734c-.152-.348-.43-.547-.8-.625-.29-.063-.556-.008-.821.09-.196.074-.348.21-.512.336-.043.015-.078.039-.059.094a6.63 6.63 0 0 1-.074.062.813.813 0 0 0-.18.3c-.015.044.004.06.044.055-.04.04.003.11-.055.137-.094-.015-.059.051-.059.094.012.164-.082.3-.136.45-.004.019-.008.046 0 .062.093.148-.09.242-.067.375-.05.011-.055.09-.117.09-.168-.012-.309.082-.469.105-.117.023-.25-.016-.355.063-.254.066-.528.085-.75.25-.04.003-.075.003-.11.007-.27.04-.511.203-.797.16-.195.07-.402.11-.578.223-.257.016-.488.152-.75.168-.023 0-.054.027-.058.047-.051.187-.114.375-.133.57-.023.246-.059.492-.09.739-.027.183-.047.367-.086.546-.035.16.004.36.008.54a.31.31 0 0 0 .238.304c.399.117.79.242 1.207.309.418.066.84.137 1.25.246.29.078.578.152.871.191.239.032.442.192.703.14a.549.549 0 0 1 .286.013c.398.148.82.18 1.23.277.371.086.742.152 1.113.219.118.02.254.043.348-.004.055-.028.129-.153.14-.25.036-.305.18-.57.317-.832.309-.59.418-1.238.566-1.875.075-.313.122-.64.18-.961.078-.469.172-.934.258-1.402.047-.286.14-.56.164-.844.012-.164-.082-.23-.238-.164Zm-.465 1.238c-.101.324-.16.668-.203 1.004-.04.32-.098.637-.184.941-.07.246-.062.504-.168.742-.035.09-.066.086-.132.063-.328-.129-.672-.203-1.008-.29-.414-.109-.832-.214-1.246-.331-.387-.11-.782-.192-1.176-.293-.422-.113-.844-.23-1.27-.336-.449-.113-.898-.223-1.347-.34a1.586 1.586 0 0 0-.512-.055c-.043.008-.094-.004-.098-.05 0-.032.047-.047.094-.04.164.008.317-.09.484-.082.102.043.2.043.274-.054.086-.063.191.015.277-.043.106-.004.211-.012.297-.086.098 0 .195.031.29-.031.093-.047.237.015.288-.133.051-.035.094-.04.153 0 .05.031.12.015.172-.028.058-.007.117 0 .175-.023.223-.094.465-.125.703-.184.02 0 .04 0 .063-.003.273-.075.258-.063.434.16.136.18.324.316.554.379.274.074.551.101.824.02.137-.044.266-.11.403-.165.043.008-.074.102.023.059a.768.768 0 0 0 .317-.196c.039-.047-.008-.062 0-.09h.011v-.011c.028-.004.043-.028.051-.051l.008-.008v-.012c.223-.058.281-.246.332-.433l.023-.043c.016-.059.036-.121.051-.184.016-.172.098-.265.281-.308.305-.067.606-.176.934-.274-.105.27-.09.543-.172.805ZM49.281 20.395s-.008-.012-.011-.008l-.02.015h.004c.008 0 .016-.004.027-.007Zm0 0"></path><path fill="#fff" d="M38.855 37.602s.024.02.04.02c.105-.005.132.12.226.14-.027.101.063.144.117.199.086.102.192.187.266.3.047.067.101.18.152.18.145 0 .16.133.16.188-.007.152.075.27.118.398.011.047.109-.015.062.07-.059.114.012.208.066.301v.004l.004-.004c.004.016 0 .032.024.028.004 0 .008-.02.004-.028-.004-.007-.012-.011-.016-.011.008-.024-.039-.067.012-.078.055.027.086.152.11.113.07-.121.116-.004.163.004.153.023.227-.02.227-.156 0-.047-.016-.094-.031-.141-.055-.16-.11-.32-.176-.477-.156-.37-.36-.722-.703-.941-.188-.125-.32-.32-.532-.395-.16-.05-.308-.156-.496-.136-.101.011-.101.074-.07.113.082.105.227.16.273.3ZM40.281 39.887c-.101.031-.152.12-.152.218-.004.211-.02.422.027.633.012.055.032.047.082.063.098.027.149-.106.227-.047.164 0 .25-.082.21-.23a1.923 1.923 0 0 0-.152-.504c-.05-.11-.128-.168-.242-.133ZM33.423 57.401a.48.48 0 0 1-.172-.03.32.32 0 0 1-.125-.126.325.325 0 0 1-.046-.172c0-.062.015-.113.046-.156a.348.348 0 0 1 .297-.172c.07 0 .133.016.188.047.05.031.094.074.125.125a.256.256 0 0 1 .047.156c0 .094-.04.172-.11.235a.342.342 0 0 1-.25.093Zm0 0"></path></svg>